<svg id="Capa_1" data-name="Capa 1" xmlns="http://www.w3.org/2000/svg" viewBox="0 0 340 127.05"><defs><style>.cls-1{font-size:48px;font-family:Enrique-Round, Enrique;}.cls-1,.cls-2{fill:#fff;}.cls-3{fill:#a3bf49;}</style></defs><title>ReportateSVG</title><text class="cls-1" transform="translate(88.41 79.36)">Repórtate</text><path class="cls-2" d="M81.66,45.94c-2.2-8.55-7.59-14-16.13-16.32-1.07-.29-2.19-.41-3.28-.6H58.76a2.47,2.47,0,0,1-.4.11A20.87,20.87,0,0,0,46,34.62a21.45,21.45,0,0,0-7.17,17.45,29.75,29.75,0,0,0,2,9.07A71.92,71.92,0,0,0,52.71,81.29c2.29,2.83,4.71,5.54,7.08,8.3l.73.88c1-1.18,2-2.31,3-3.42a116.26,116.26,0,0,0,7.73-8.92,60,60,0,0,0,9.63-18.48C82.21,55.14,82.85,50.56,81.66,45.94ZM60.61,67.77A16.72,16.72,0,1,1,77.32,51.05,16.72,16.72,0,0,1,60.61,67.77Z"/><path class="cls-3" d="M51.41,48.28c-.84,2.92,1.3,7.33,1.3,7.33-7.78-7.26,0-15.59,0-15.59a13,13,0,0,0,7,24h.07A15.11,15.11,0,0,0,51.41,48.28Z"/><path class="cls-3" d="M69.68,48.28c.84,2.92-1.3,7.33-1.3,7.33,7.78-7.26,0-15.59,0-15.59a13,13,0,0,1-7,24h-.07A15.11,15.11,0,0,1,69.68,48.28Z"/><path class="cls-2" d="M65.42,42.08H63.15V39.8a1.72,1.72,0,0,0-1.74-1.69H59.69a1.72,1.72,0,0,0-1.74,1.69v2.28H55.67A1.72,1.72,0,0,0,54,43.82v1.72a1.72,1.72,0,0,0,1.69,1.74h2.28v2.28a1.72,1.72,0,0,0,1.74,1.69h1.72a1.72,1.72,0,0,0,1.74-1.69V47.28h2.28a1.72,1.72,0,0,0,1.69-1.74V43.82A1.72,1.72,0,0,0,65.42,42.08Z"/></svg>