<svg id="Capa_1" data-name="Capa 1" xmlns="http://www.w3.org/2000/svg" viewBox="0 0 340 127.05"><defs><style>.cls-1{font-size:48px;font-family:Enrique-Round, Enrique;}.cls-1,.cls-2{fill:#4c9fdc;}.cls-3{fill:#a3bf49;}</style></defs><title>ReportateSVG</title><text class="cls-1" transform="translate(88.41 82.07)">Repórtate</text><path class="cls-2" d="M81.66,48.65c-2.2-8.55-7.59-14-16.13-16.32-1.07-.29-2.19-.41-3.28-.6H58.76a2.47,2.47,0,0,1-.4.11A20.87,20.87,0,0,0,46,37.34a21.45,21.45,0,0,0-7.17,17.45,29.75,29.75,0,0,0,2,9.07A71.92,71.92,0,0,0,52.71,84c2.29,2.83,4.71,5.54,7.08,8.3l.73.88c1-1.18,2-2.31,3-3.42a116.26,116.26,0,0,0,7.73-8.92,60,60,0,0,0,9.63-18.48C82.21,57.85,82.85,53.27,81.66,48.65ZM60.61,70.49A16.72,16.72,0,1,1,77.32,53.77,16.72,16.72,0,0,1,60.61,70.49Z"/><path class="cls-3" d="M51.41,51c-.84,2.92,1.3,7.33,1.3,7.33-7.78-7.26,0-15.59,0-15.59a13,13,0,0,0,7,24h.07A15.11,15.11,0,0,0,51.41,51Z"/><path class="cls-3" d="M69.68,51c.84,2.92-1.3,7.33-1.3,7.33,7.78-7.26,0-15.59,0-15.59a13,13,0,0,1-7,24h-.07A15.11,15.11,0,0,1,69.68,51Z"/><path class="cls-2" d="M65.42,44.79H63.15V42.52a1.72,1.72,0,0,0-1.74-1.69H59.69a1.72,1.72,0,0,0-1.74,1.69v2.28H55.67A1.72,1.72,0,0,0,54,46.53v1.72A1.72,1.72,0,0,0,55.67,50h2.28v2.28A1.72,1.72,0,0,0,59.69,54h1.72a1.72,1.72,0,0,0,1.74-1.69V50h2.28a1.72,1.72,0,0,0,1.69-1.74V46.53A1.72,1.72,0,0,0,65.42,44.79Z"/></svg>